<svg xmlns="http://www.w3.org/2000/svg" xmlns:xlink="http://www.w3.org/1999/xlink" width="50" height="50" viewBox="0 0 50 50">
  <defs>
    <clipPath id="clip-Artboard_10">
      <rect width="50" height="50"/>
    </clipPath>
  </defs>
  <g id="Artboard_10" data-name="Artboard – 10" clip-path="url(#clip-Artboard_10)">
    <path id="Icon_simple-graphql" data-name="Icon simple-graphql" d="M24.228,4.807l8.624,4.98a3.736,3.736,0,1,1,3.591,6.206v9.959a3.741,3.741,0,1,1-3.679,6.122l-8.572,4.949a3.74,3.74,0,1,1-7.135.121L8.432,32.169a3.74,3.74,0,1,1-3.586-6.219l0-9.959A3.739,3.739,0,1,1,7.591,9.119a3.637,3.637,0,0,1,.839.659L17.06,4.8a3.738,3.738,0,1,1,7.168.01Zm-.9,1.533a1.387,1.387,0,0,1-.1.1L34.517,26c.045-.016.1-.028.143-.04V15.983a3.731,3.731,0,0,1-2.723-4.523c.01-.042.021-.086.033-.126L23.328,6.34Zm-5.269.1-.1-.1L9.311,11.322a3.733,3.733,0,0,1-2.553,4.622c-.045.014-.089.024-.133.037v9.975l.147.04L18.063,6.441l0,0Zm3.628.886a3.768,3.768,0,0,1-2.083,0L8.315,26.882A3.791,3.791,0,0,1,9.363,28.7H31.926a3.759,3.759,0,0,1,1.054-1.824L21.687,7.329ZM23.41,35.686,32,30.727c-.026-.082-.047-.164-.066-.248H9.358l-.037.145,8.631,4.984a3.745,3.745,0,0,1,5.458.079Z" transform="translate(4.356 4.03)" fill="#2a6400"/>
  </g>
</svg>
