<svg xmlns="http://www.w3.org/2000/svg" xmlns:xlink="http://www.w3.org/1999/xlink" width="50" height="50" viewBox="0 0 50 50">
  <defs>
    <clipPath id="clip-Artboard_1">
      <rect width="50" height="50"/>
    </clipPath>
  </defs>
  <g id="Artboard_1" data-name="Artboard – 1" clip-path="url(#clip-Artboard_1)">
    <g id="Group_92" data-name="Group 92" transform="translate(5.819 6.674)" opacity="0.69">
      <path id="Icon_feather-star" data-name="Icon feather-star" d="M20.681,1.5a1.744,1.744,0,0,1,1.564.972l4.983,10.094L38.37,14.195a1.744,1.744,0,0,1,.964,2.974l-8.061,7.852,1.9,11.093a1.744,1.744,0,0,1-2.53,1.838l-9.964-5.24-9.964,5.24a1.744,1.744,0,0,1-2.53-1.838l1.9-11.093L2.027,17.169a1.744,1.744,0,0,1,.964-2.974l11.143-1.629L19.117,2.472A1.744,1.744,0,0,1,20.681,1.5ZM34.371,17.135l-8.555-1.25a1.744,1.744,0,0,1-1.311-.954L20.681,7.183l-3.824,7.748a1.744,1.744,0,0,1-1.311.954L6.99,17.135l6.189,6.028a1.744,1.744,0,0,1,.5,1.544l-1.46,8.514L19.869,29.2a1.744,1.744,0,0,1,1.623,0l7.649,4.022-1.46-8.514a1.744,1.744,0,0,1,.5-1.544Z" transform="translate(-1.5 -1.5)"/>
    </g>
  </g>
</svg>
