<svg xmlns="http://www.w3.org/2000/svg" xmlns:xlink="http://www.w3.org/1999/xlink" width="50" height="50" viewBox="0 0 50 50">
  <defs>
    <clipPath id="clip-Artboard_14">
      <rect width="50" height="50"/>
    </clipPath>
  </defs>
  <g id="Artboard_14" data-name="Artboard – 14" clip-path="url(#clip-Artboard_14)">
    <g id="Group_88" data-name="Group 88" transform="translate(4.555 4.555)">
      <path id="Path_24" data-name="Path 24" d="M0,0H40.89V40.89H0Z" fill="none"/>
      <path id="Path_25" data-name="Path 25" d="M34.371,36.075H3.7a1.7,1.7,0,0,1-1.7-1.7V3.7a1.7,1.7,0,1,1,3.407,0V32.667H34.371a1.7,1.7,0,0,1,0,3.407Z" transform="translate(1.407 1.407)" fill="#54299b"/>
      <path id="Ellipse_27" data-name="Ellipse 27" d="M4.111-1A5.111,5.111,0,1,1-1,4.111,5.117,5.117,0,0,1,4.111-1Zm0,6.815a1.7,1.7,0,1,0-1.7-1.7A1.706,1.706,0,0,0,4.111,5.815Z" transform="translate(11.222 21.445)" fill="#54299b"/>
      <path id="Ellipse_28" data-name="Ellipse 28" d="M4.111-1A5.111,5.111,0,1,1-1,4.111,5.117,5.117,0,0,1,4.111-1Zm0,6.815a1.7,1.7,0,1,0-1.7-1.7A1.706,1.706,0,0,0,4.111,5.815Z" transform="translate(18.037 4.407)" fill="#54299b"/>
      <path id="Ellipse_29" data-name="Ellipse 29" d="M4.111-1A5.111,5.111,0,1,1-1,4.111,5.117,5.117,0,0,1,4.111-1Zm0,6.815a1.7,1.7,0,1,0-1.7-1.7A1.706,1.706,0,0,0,4.111,5.815Z" transform="translate(26.556 16.334)" fill="#54299b"/>
      <path id="Path_26" data-name="Path 26" d="M15.7,7.964a1.7,1.7,0,0,1-.412-3.357L25.513,2.051a1.7,1.7,0,0,1,.826,3.306L16.117,7.912A1.708,1.708,0,0,1,15.7,7.964Z" transform="translate(9.852 1.407)" fill="#54299b"/>
      <path id="Path_27" data-name="Path 27" d="M19.539,15.353a1.7,1.7,0,0,1-1.364-.682l-4.721-6.3A1.7,1.7,0,0,1,16.18,6.332l4.721,6.3a1.7,1.7,0,0,1-1.362,2.726Z" transform="translate(9.228 3.976)" fill="#54299b"/>
      <path id="Path_28" data-name="Path 28" d="M11.7,18.316a1.7,1.7,0,0,1-.633-3.286l8.519-3.407a1.7,1.7,0,0,1,1.266,3.164l-8.519,3.407A1.7,1.7,0,0,1,11.7,18.316Z" transform="translate(7.037 8.093)" fill="#54299b"/>
    </g>
  </g>
</svg>
