<svg xmlns="http://www.w3.org/2000/svg" xmlns:xlink="http://www.w3.org/1999/xlink" width="50" height="50" viewBox="0 0 50 50">
  <defs>
    <clipPath id="clip-path">
      <path id="Path_46" data-name="Path 46" d="M0-47.5H35.114v35.114H0Z" fill="#fff"/>
    </clipPath>
    <clipPath id="clip-Artboard_21">
      <rect width="50" height="50"/>
    </clipPath>
  </defs>
  <g id="Artboard_21" data-name="Artboard – 21" clip-path="url(#clip-Artboard_21)">
    <g id="Group_85" data-name="Group 85" transform="translate(7.443 54.943)" clip-path="url(#clip-path)">
      <path id="Path_43" data-name="Path 43" d="M34.515-16.681a3.7,3.7,0,0,1-3.7,3.7H4.946a3.7,3.7,0,0,1-3.7-3.7V-42.554a3.7,3.7,0,0,1,3.7-3.7H30.819a3.7,3.7,0,0,1,3.7,3.7Z" transform="translate(-0.326 -0.326)" fill="#fff"/>
      <path id="Path_44" data-name="Path 44" d="M12.2-35.82A3.108,3.108,0,0,0,10.765-33.3a2.688,2.688,0,0,0,2.515,2.514A2.55,2.55,0,0,0,15.793-33.3a2.559,2.559,0,0,0-.738-2.075,3.645,3.645,0,0,0-2.411-.552,2.509,2.509,0,0,0-.442.1m1.077,7.4A5.007,5.007,0,0,1,8.4-33.3c0-3.583,3.492-5.8,6.728-5.8,12.6,0,15.714,5.944,15.842,6.2a1.183,1.183,0,0,1-.537,1.554,1.183,1.183,0,0,1-1.571-.485c-.055-.1-2.471-4.321-11.779-4.848A5.077,5.077,0,0,1,18.158-33.3a4.889,4.889,0,0,1-4.878,4.878m12.935,3.7A2.55,2.55,0,0,0,23.7-22.207a2.565,2.565,0,0,0,.738,2.076,3.836,3.836,0,0,0,2.485.551c.13-.027.216-.057.369-.1a3.107,3.107,0,0,0,1.438-2.524,2.687,2.687,0,0,0-2.515-2.514m-1.848,8.316c-12.6,0-15.715-5.945-15.842-6.2a1.183,1.183,0,0,1,.537-1.554,1.183,1.183,0,0,1,1.571.485c.055.1,2.471,4.321,11.778,4.848a5.077,5.077,0,0,1-1.075-3.384,4.889,4.889,0,0,1,4.878-4.879,5.006,5.006,0,0,1,4.879,4.879c0,3.584-3.492,5.8-6.727,5.8" transform="translate(-2.19 -2.191)"/>
      <path id="Path_45" data-name="Path 45" d="M16.771-32.254a2.809,2.809,0,0,0-2.809-2.81,2.809,2.809,0,0,0-2.809,2.809,2.809,2.809,0,0,0,2.809,2.809,2.809,2.809,0,0,0,2.809-2.809M29.707-21.165a2.809,2.809,0,0,0-2.809-2.81,2.809,2.809,0,0,0-2.809,2.809A2.809,2.809,0,0,0,26.9-18.356a2.809,2.809,0,0,0,2.809-2.809" transform="translate(-2.908 -3.243)" fill="#fff"/>
    </g>
  </g>
</svg>
