<svg xmlns="http://www.w3.org/2000/svg" xmlns:xlink="http://www.w3.org/1999/xlink" width="50" height="50" viewBox="0 0 50 50">
  <defs>
    <clipPath id="clip-Artboard_24">
      <rect width="50" height="50"/>
    </clipPath>
  </defs>
  <g id="Artboard_24" data-name="Artboard – 24" clip-path="url(#clip-Artboard_24)">
    <path id="Icon_material-notifications-none" data-name="Icon material-notifications-none" d="M21.157,40.7a3.8,3.8,0,0,0,3.789-3.789H17.368A3.8,3.8,0,0,0,21.157,40.7ZM32.525,29.327V19.854c0-5.816-3.088-10.686-8.526-11.974V6.592a2.842,2.842,0,0,0-5.684,0V7.88C12.9,9.169,9.789,14.019,9.789,19.854v9.473L6,33.117v1.895H36.314V33.117Zm-3.789,1.895H13.578V19.854c0-4.7,2.861-8.526,7.578-8.526s7.578,3.827,7.578,8.526Z" transform="translate(3.843 2.777)" fill="#fff"/>
  </g>
</svg>
